<?xml version="1.0" standalone="no"?>
<!DOCTYPE svg PUBLIC "-//W3C//DTD SVG 20010904//EN"
 "http://www.w3.org/TR/2001/REC-SVG-20010904/DTD/svg10.dtd">
<svg version="1.0" xmlns="http://www.w3.org/2000/svg"
 width="512.000000pt" height="512.000000pt" viewBox="0 0 512.000000 512.000000"
 preserveAspectRatio="xMidYMid meet">
<metadata>
Created by potrace 1.11, written by Peter Selinger 2001-2013
</metadata>
<g transform="translate(0.000000,512.000000) scale(0.100000,-0.100000)"
fill="#000000" stroke="none">
<path d="M1760 5003 c-49 -8 -140 -37 -140 -45 0 -4 -6 -8 -13 -8 -20 0 -54
-29 -126 -105 -85 -90 -273 -277 -293 -292 -9 -7 -28 -15 -42 -19 -14 -3 -26
-10 -26 -14 0 -9 -100 -29 -205 -39 -150 -16 -250 -56 -317 -129 -75 -81 -85
-121 -98 -372 -11 -216 -21 -242 -117 -327 -63 -55 -192 -182 -222 -218 -7 -9
-26 -42 -42 -73 -32 -63 -38 -139 -18 -216 23 -88 51 -182 60 -198 5 -9 12
-35 15 -58 4 -22 11 -43 15 -46 12 -7 12 -191 0 -198 -5 -3 -12 -18 -16 -33
-3 -15 -10 -30 -13 -33 -13 -10 -52 -69 -52 -80 0 -5 -4 -10 -9 -10 -15 0 -40
-87 -36 -122 11 -83 31 -133 89 -218 48 -69 61 -85 144 -179 35 -40 65 -87 80
-125 13 -34 30 -75 38 -93 8 -17 14 -34 14 -38 0 -9 101 -219 109 -225 3 -3
17 -26 31 -52 13 -27 28 -48 32 -48 5 0 8 -6 8 -13 0 -16 103 -168 164 -242
23 -27 46 -56 51 -64 14 -19 273 -280 310 -312 137 -117 444 -318 526 -344 13
-4 29 -14 37 -21 7 -8 22 -14 33 -14 10 0 19 -4 19 -10 0 -5 5 -10 11 -10 5 0
29 -8 52 -18 23 -10 60 -26 82 -34 22 -9 58 -23 80 -32 138 -55 386 -110 610
-137 148 -17 511 -6 645 20 191 37 329 75 455 126 52 21 229 107 235 114 3 3
23 15 45 26 58 29 180 110 260 174 107 84 341 324 426 436 71 93 90 122 162
243 64 108 152 316 141 333 -3 5 -53 -27 -112 -71 -133 -99 -124 -93 -148
-107 -147 -91 -228 -135 -319 -173 -27 -11 -57 -24 -65 -29 -9 -5 -35 -12 -58
-16 -23 -4 -42 -11 -42 -16 0 -5 -15 -9 -32 -9 l-33 1 46 23 c42 22 164 102
199 132 80 67 243 234 290 299 33 44 64 85 68 90 44 57 123 216 170 340 41
109 57 164 78 270 32 157 21 525 -15 525 -4 0 -36 -57 -71 -127 -116 -230
-194 -350 -309 -476 -24 -26 -46 -45 -48 -43 -3 2 6 21 20 43 53 85 137 286
137 328 0 13 5 25 10 27 6 2 13 28 17 58 3 30 11 61 17 69 16 20 15 440 -1
472 -6 13 -14 45 -18 71 -3 26 -10 50 -16 53 -5 4 -9 14 -9 23 -1 9 -9 35 -20
57 -11 22 -19 43 -20 47 -1 26 -109 186 -162 240 -39 40 -48 16 -18 -47 11
-22 19 -49 20 -60 0 -12 4 -25 10 -31 27 -27 53 -297 41 -420 -17 -167 -31
-258 -41 -268 -6 -6 -10 -20 -10 -31 0 -22 -34 -143 -50 -180 -5 -11 -20 -49
-33 -85 -54 -145 -209 -420 -292 -517 -5 -6 -21 -26 -34 -45 -46 -62 -306
-314 -368 -356 -35 -24 -63 -47 -63 -52 0 -19 85 -32 165 -26 131 10 306 46
361 74 48 24 158 77 168 81 15 6 -29 -37 -94 -89 -30 -25 -57 -47 -60 -50 -3
-3 -21 -17 -40 -30 -19 -13 -37 -27 -40 -30 -16 -18 -234 -150 -248 -150 -6 0
-12 -3 -14 -7 -5 -12 -102 -57 -223 -103 -33 -12 -69 -26 -80 -31 -11 -4 -36
-11 -55 -15 -19 -3 -39 -10 -45 -14 -18 -14 -174 -40 -327 -55 -45 -4 -68 -11
-68 -19 0 -7 28 -36 63 -64 81 -68 76 -64 122 -92 22 -13 42 -27 45 -31 3 -4
18 -11 33 -14 15 -4 27 -11 27 -16 0 -5 5 -9 11 -9 6 0 25 -7 42 -15 39 -18
155 -55 173 -55 7 0 37 -5 66 -12 l53 -12 -50 -9 c-123 -24 -564 -5 -610 25
-6 3 -28 9 -49 13 -22 5 -51 14 -65 21 -14 8 -31 14 -37 14 -10 0 -103 38
-112 45 -2 2 56 106 129 231 126 220 225 390 794 1374 142 245 263 455 269
466 8 17 23 23 68 28 32 4 60 11 63 16 4 6 18 10 33 10 15 0 36 6 47 14 11 7
32 16 48 20 15 3 27 11 27 16 0 6 7 10 15 10 9 0 18 7 21 15 4 8 12 15 19 15
16 0 64 61 87 110 20 40 32 99 31 150 0 46 -19 153 -31 176 -5 11 -20 42 -33
69 -12 28 -25 52 -28 55 -3 3 -17 25 -30 50 -66 124 -274 345 -456 485 -49 38
-91 73 -93 77 -2 4 -8 8 -13 8 -9 0 -68 38 -79 51 -10 11 -199 119 -209 119
-5 0 -11 3 -13 8 -8 18 -254 126 -373 162 -38 12 -77 25 -85 28 -101 38 -380
80 -537 81 -60 1 -96 5 -105 14 -7 7 -40 33 -73 58 -130 98 -275 149 -420 147
-38 0 -81 -3 -95 -5z m689 -1594 c25 -11 60 -26 76 -34 27 -13 99 -43 150 -64
85 -35 105 -45 105 -48 0 -2 -31 -57 -69 -121 -37 -64 -87 -150 -110 -189 -23
-40 -44 -73 -46 -73 -2 0 -20 30 -42 68 -48 85 -41 73 -156 268 -92 155 -97
167 -80 179 17 13 78 31 112 34 8 1 35 -8 60 -20z m-857 -1174 c69 -121 196
-341 282 -488 86 -148 156 -271 156 -273 0 -6 -51 48 -97 104 -19 23 -40 42
-45 42 -15 0 -5 -177 10 -192 7 -7 12 -21 12 -31 0 -10 6 -31 13 -45 8 -15 23
-45 33 -67 39 -82 143 -226 213 -293 13 -13 21 -25 19 -27 -6 -7 -203 120
-271 174 -132 105 -280 279 -350 411 -35 68 -97 219 -97 239 0 11 -4 22 -9 26
-5 3 -13 31 -17 63 -3 31 -12 63 -18 71 -17 22 -15 444 3 498 17 52 2 72 163
-212z"/>
</g>
</svg>
